<svg width="106" height="25" viewBox="0 0 106 25" fill="none" xmlns="http://www.w3.org/2000/svg">
<path d="M11.8029 0.000976562V11.4825C11.8029 13.2277 11.4714 14.5911 10.8094 15.5726C10.1464 16.5542 8.95613 17.045 7.23566 17.045C6.34617 17.045 5.59039 16.8373 4.96738 16.421C4.34529 16.0038 3.89962 15.5438 3.63315 15.0381C3.36668 14.5324 3.16891 13.9522 3.04078 13.2976C2.91172 12.6429 2.84765 12.1866 2.84765 11.9295V11.3047H0C0 16.719 2.4122 19.4253 7.23659 19.4253C8.67945 19.4253 9.89576 19.2074 10.8846 18.7706C11.8725 18.3348 12.6199 17.7248 13.1232 16.9416C13.6273 16.1584 13.9829 15.3305 14.1909 14.457C14.3989 13.5853 14.5029 12.5935 14.5029 11.4825V0.000976562H11.8038H11.8029Z" fill="#F5F5F5"/>
<path d="M27.3442 6.97614C26.3953 5.95454 24.9515 5.44421 23.0138 5.44421H22.7761C21.8866 5.46377 21.0863 5.67796 20.3741 6.08399C19.662 6.49095 19.1179 7.0404 18.7428 7.73419V0.000976562H16.1328V19.1263H18.7428V12.5237C18.7428 10.7394 19.0835 9.48404 19.766 8.76044C20.4484 8.03685 21.4307 7.67459 22.7167 7.67459H22.8355C24.0017 7.69414 24.8475 8.00705 25.3712 8.61144C25.8949 9.21676 26.1567 10.243 26.1567 11.6902V19.1263H28.7667V11.6902C28.7667 9.56878 28.2922 7.99774 27.3433 6.97614H27.3442Z" fill="#F5F5F5"/>
<path d="M33.4225 2.14062V6.65819H33.39L30.8125 4.073V2.14062H33.4225Z" fill="#FFAD00"/>
<path d="M33.4225 6.6582H30.8125V19.126H33.4225V6.6582Z" fill="#F5F5F5"/>
<path d="M46.7955 6.97627C45.8466 5.95467 44.4028 5.44434 42.466 5.44434H42.2283C41.2989 5.46389 40.4688 5.69299 39.7372 6.12882C39.0055 6.56465 38.4624 7.15972 38.1068 7.91312V5.74141H35.5859V19.1265H38.1959V12.5238C38.1959 10.7395 38.5376 9.48416 39.2191 8.76057C39.9015 8.03698 40.8848 7.67471 42.1698 7.67471H42.2886C43.4548 7.69427 44.3007 8.00717 44.8243 8.61157C45.348 9.21689 45.6108 10.2431 45.6108 11.6903V19.1265H48.2198V11.6903C48.2198 9.5689 47.7453 7.99786 46.7964 6.97627H46.7955Z" fill="#F5F5F5"/>
<path d="M59.4892 14.0323L57.8755 12.2452L57.8579 12.2256L57.8607 12.2228L56.2293 10.4087L56.2265 10.4106L55.2832 9.35731L52.0456 5.74121H48.7829L54.7438 12.3746L48.6641 19.1263H51.9267L56.3751 14.1589L60.8235 19.1263H64.0861L59.4892 14.0323Z" fill="#F5F5F5"/>
<path d="M60.4376 5.74121L57.875 8.5825V12.206L63.6994 5.74121H60.4376Z" fill="#F5F5F5"/>
<path d="M77.7879 1.59153C76.5614 0.530817 74.7814 0 72.45 0H64.8281V19.1254H67.5272V11.6892H72.45C74.7425 11.6892 76.5131 11.1435 77.7582 10.053C79.0042 8.96248 79.6263 7.56465 79.6263 5.85858C79.6263 4.1525 79.0135 2.6513 77.7879 1.59059V1.59153ZM75.6672 8.43353C74.8864 9.07796 73.814 9.40018 72.45 9.40018H67.5272V2.29091H72.45C73.8335 2.29091 74.9105 2.59357 75.683 3.19796C76.4536 3.80328 76.839 4.69078 76.839 5.86044C76.839 6.9314 76.449 7.79002 75.6672 8.43353Z" fill="#F5F5F5"/>
<path d="M92.4678 16.8364C92.1716 16.8364 91.9739 16.7815 91.8745 16.6725C91.7752 16.5636 91.7269 16.3596 91.7269 16.0626V10.5001C91.7269 8.95329 91.2663 7.72402 90.3481 6.81138C89.4289 5.89967 88.0092 5.44336 86.0919 5.44336C84.9452 5.44336 83.9462 5.59236 83.0966 5.88943C82.2461 6.18651 81.6241 6.51338 81.2285 6.87098C80.833 7.22766 80.5266 7.64394 80.3093 8.12074C80.0921 8.59755 79.9686 8.92442 79.9389 9.10229C79.9092 9.2811 79.8943 9.42916 79.8943 9.54837H82.7707V9.3407C82.7902 9.20194 82.8599 9.03338 82.9778 8.83502C83.0957 8.63666 83.2591 8.4383 83.4671 8.23994C83.6741 8.04158 84.0056 7.87302 84.4606 7.73427C84.9146 7.59644 85.4485 7.5266 86.0622 7.5266C88.0984 7.5266 89.1169 8.55843 89.1169 10.6203C89.0575 10.6203 88.7557 10.6491 88.2126 10.7097C87.6685 10.7693 87.2042 10.8186 86.818 10.8577C86.4327 10.8978 85.909 10.9816 85.2461 11.111C84.5831 11.2405 84.0056 11.3783 83.5107 11.5273C83.0168 11.6763 82.4829 11.8793 81.91 12.1373C81.3362 12.3952 80.8664 12.683 80.5015 12.9996C80.1357 13.3172 79.834 13.7046 79.5972 14.16C79.34 14.6359 79.2109 15.1415 79.2109 15.677C79.2109 16.788 79.626 17.6904 80.457 18.3842C81.287 19.0789 82.4736 19.4254 84.0158 19.4254C86.3287 19.4254 88.0584 18.672 89.2051 17.1642C89.3435 17.8981 89.6601 18.4093 90.154 18.6962C90.648 18.9839 91.4 19.1273 92.4084 19.1273H93.4158V16.8374H92.4669L92.4678 16.8364ZM89.1169 13.9514C89.1169 14.9031 88.5979 15.7022 87.5598 16.3457C86.5218 16.9901 85.429 17.3123 84.2823 17.3123C83.6101 17.3123 83.0567 17.1736 82.6212 16.8951C82.1867 16.6176 81.9685 16.2116 81.9685 15.6752C81.9685 14.9814 82.3734 14.3965 83.1848 13.9207C84.2127 13.3256 86.1903 12.9 89.116 12.6411V13.9505L89.1169 13.9514Z" fill="#F5F5F5"/>
<path d="M102.788 5.74121L98.7839 15.7057L94.9586 5.74121H92.1406L97.5676 18.7705L96.4701 21.5066C96.2928 21.8837 96.1582 22.1063 96.07 22.1762C95.9808 22.2451 95.7478 22.2795 95.3736 22.2795H93.2381V24.5704H95.3736C95.9864 24.5704 96.4906 24.5211 96.8861 24.4214C97.2816 24.3218 97.628 24.1039 97.9241 23.7668C98.2203 23.4296 98.4329 23.1372 98.562 22.8895C98.6901 22.6409 98.9028 22.1808 99.1999 21.5066L105.605 5.74121H102.788Z" fill="#F5F5F5"/>
</svg>
