<svg width="30" height="34" viewBox="0 0 30 34" fill="none" xmlns="http://www.w3.org/2000/svg">
<path d="M0 9.82501V23.5892C0 24.6412 0.56082 25.6124 1.47169 26.138L13.3919 33.0201C14.3027 33.5456 15.4244 33.5456 16.3352 33.0201L28.2554 26.138C29.1663 25.6124 29.7271 24.6403 29.7271 23.5892V9.82501C29.7271 8.77301 29.1663 7.80179 28.2554 7.27626L16.3352 0.394152C15.4244 -0.131384 14.3027 -0.131384 13.3919 0.394152L1.47169 7.27626C0.56082 7.80179 0 8.77394 0 9.82501Z" fill="#FFAD00"/>
<path d="M17.7563 16.2521C17.4072 16.6012 17.4713 17.0887 17.8993 17.3348L27.2698 22.7442C27.697 22.9912 28.047 22.7888 28.047 22.2958V9.99396C28.047 9.50093 27.697 8.89554 27.2698 8.64856L26.8362 8.39786C26.4091 8.15087 25.774 8.23444 25.4249 8.58356L17.7573 16.2512L17.7563 16.2521Z" fill="white"/>
<path d="M14.598 15.4283C15.0251 15.6753 15.6602 15.5917 16.0093 15.2426L23.677 7.575C24.0261 7.22588 23.962 6.73841 23.534 6.49236L15.6407 1.93524C15.2136 1.68825 14.5144 1.68825 14.0873 1.93524L3.43362 8.08661C3.0065 8.33359 3.0065 8.73656 3.43362 8.98354L14.598 15.4293V15.4283Z" fill="white"/>
<path d="M19.2806 20.3842C18.8535 20.1372 18.2184 20.2208 17.8693 20.5699L10.2017 28.2375C9.85254 28.5866 9.91661 29.0741 10.3447 29.3201L14.0856 31.4799C14.5127 31.7268 15.2119 31.7268 15.639 31.4799L26.2927 25.3285C26.7198 25.0815 26.7198 24.6785 26.2927 24.4316L19.2806 20.3833V20.3842Z" fill="white"/>
<path d="M16.1226 19.5613C16.4718 19.2122 16.4077 18.7247 15.9796 18.4787L2.45685 10.6718C2.02973 10.4248 1.67969 10.6272 1.67969 11.1202V23.422C1.67969 23.9151 2.02973 24.5205 2.45685 24.7675L7.04275 27.4146C7.46986 27.6616 8.10496 27.5781 8.45408 27.2289L16.1217 19.5613H16.1226Z" fill="white"/>
</svg>
